<svg width="76" height="53" viewBox="0 0 76 53" fill="none" xmlns="http://www.w3.org/2000/svg">
<path d="M23.0526 52.3647L23.0487 53.437H23.0526V52.3647ZM11.3061 49.221L10.7342 50.128L11.3061 49.221ZM3.67826 40.2284L2.70278 40.6736L3.67826 40.2284ZM1.02191 26.1424L2.09419 26.1456V26.1456L1.02191 26.1424ZM3.70263 12.1539L2.73072 11.7009L2.72915 11.7043L3.70263 12.1539ZM11.3061 3.40499L10.7505 2.4879L10.7485 2.48912L11.3061 3.40499ZM34.799 3.42936L34.24 4.34444L34.2433 4.34644L34.799 3.42936ZM42.4269 12.1783L43.3988 11.7253V11.7253L42.4269 12.1783ZM45.0832 26.1424L44.011 26.1392V26.1424H45.0832ZM42.4025 40.2771L43.378 40.7224L42.4025 40.2771ZM34.7746 49.2697L35.3454 50.1775L35.3466 50.1768L34.7746 49.2697ZM28.8039 37.6939L27.8909 37.1315L27.8899 37.1332L28.8039 37.6939ZM31.046 26.1424H29.9737L29.9737 26.1457L31.046 26.1424ZM30.0225 17.7347L31.0457 17.414L30.0225 17.7347ZM27.1955 12.9094L26.4878 13.715L26.4941 13.7204L27.1955 12.9094ZM17.3256 14.8834L16.4156 14.3162H16.4156L17.3256 14.8834ZM15.0591 26.1424L13.9869 26.1356L13.9869 26.1374L15.0591 26.1424ZM16.0583 34.7694L15.0319 35.0796L15.0325 35.0816L16.0583 34.7694ZM18.8853 39.741L18.1715 40.5412L18.1769 40.5459L18.8853 39.741ZM23.0564 51.2924C18.6914 51.2768 14.9799 50.2698 11.8781 48.3139L10.7342 50.128C14.2285 52.3313 18.3481 53.4202 23.0487 53.437L23.0564 51.2924ZM11.8781 48.3139C8.7747 46.3571 6.36355 43.5292 4.65374 39.7831L2.70278 40.6736C4.56726 44.7585 7.24136 47.9256 10.7342 50.128L11.8781 48.3139ZM4.65374 39.7831C2.94581 36.0412 2.07828 31.5067 2.09419 26.1456L-0.0503786 26.1392C-0.0669637 31.7284 0.836411 36.5846 2.70278 40.6736L4.65374 39.7831ZM2.09419 26.1456C2.11011 20.7639 2.98618 16.2624 4.6761 12.6035L2.72915 11.7043C0.877271 15.7139 -0.0338069 20.538 -0.0503786 26.1392L2.09419 26.1456ZM4.67453 12.6069C6.38169 8.94426 8.78077 6.19814 11.8638 4.32085L10.7485 2.48912C7.26778 4.60854 4.59787 7.69502 2.73073 11.7009L4.67453 12.6069ZM11.8618 4.32207C14.9649 2.44186 18.6809 1.47974 23.0526 1.47974V-0.664841C18.3586 -0.664841 14.2436 0.371391 10.7505 2.48791L11.8618 4.32207ZM23.0526 1.47974C27.4227 1.47974 31.1375 2.44927 34.2401 4.34443L35.358 2.51428C31.8643 0.38023 27.7481 -0.664841 23.0526 -0.664841V1.47974ZM34.2433 4.34644C37.3423 6.22411 39.7485 8.97005 41.455 12.6313L43.3988 11.7253C41.531 7.71798 38.852 4.63132 35.3547 2.51228L34.2433 4.34644ZM41.455 12.6313C43.159 16.2871 44.0269 20.777 44.011 26.1392L46.1555 26.1456C46.1721 20.5574 45.2691 15.7379 43.3988 11.7253L41.455 12.6313ZM44.011 26.1424C44.011 31.5378 43.1352 36.0895 41.427 39.8319L43.378 40.7224C45.2441 36.6338 46.1555 31.7623 46.1555 26.1424H44.011ZM41.427 39.8319C39.7172 43.5779 37.3061 46.4059 34.2027 48.3627L35.3466 50.1768C38.8394 47.9744 41.5135 44.8073 43.378 40.7224L41.427 39.8319ZM34.2039 48.3619C31.1202 50.3007 27.4183 51.2924 23.0526 51.2924V53.437C27.7526 53.437 31.8653 52.3654 35.3454 50.1775L34.2039 48.3619ZM23.0526 42.4217C25.852 42.4217 28.0785 40.9275 29.718 38.2545L27.8899 37.1332C26.5399 39.3342 24.9323 40.2771 23.0526 40.2771V42.4217ZM29.717 38.2562C31.3877 35.5435 32.1347 31.4457 32.1183 26.1391L29.9737 26.1457C29.9898 31.3345 29.2421 34.9377 27.8909 37.1315L29.717 38.2562ZM32.1183 26.1424C32.1183 22.6544 31.7725 19.733 31.0457 17.414L28.9992 18.0554C29.6371 20.0905 29.9737 22.7742 29.9737 26.1424H32.1183ZM31.0457 17.414C30.3283 15.1251 29.3019 13.3134 27.8969 12.0983L26.4941 13.7204C27.4936 14.5849 28.3519 15.9901 28.9992 18.0554L31.0457 17.414ZM27.9032 12.1037C26.5108 10.8807 24.88 10.253 23.0526 10.253V12.3976C24.3445 12.3976 25.4757 12.8259 26.4879 13.715L27.9032 12.1037ZM23.0526 10.253C20.266 10.253 18.0454 11.7012 16.4156 14.3162L18.2356 15.4505C19.5626 13.3214 21.1601 12.3976 23.0526 12.3976V10.253ZM16.4156 14.3162C14.7766 16.9458 14.0197 20.9451 13.9869 26.1356L16.1314 26.1492C16.1635 21.0717 16.9177 17.565 18.2356 15.4505L16.4156 14.3162ZM13.9869 26.1374C13.9703 29.6911 14.3076 32.6828 15.0319 35.0796L17.0848 34.4593C16.4443 32.3395 16.1155 29.5798 16.1314 26.1474L13.9869 26.1374ZM15.0325 35.0816C15.7476 37.4314 16.7702 39.2914 18.1715 40.5412L19.599 38.9407C18.5958 38.0459 17.7338 36.5916 17.0842 34.4572L15.0325 35.0816ZM18.1769 40.5459C19.5824 41.7828 21.2207 42.4217 23.0526 42.4217V40.2771C21.765 40.2771 20.6251 39.8437 19.5937 38.936L18.1769 40.5459ZM75.9116 1.08982H76.9838V0.0175247H75.9116V1.08982ZM75.9116 51V52.0723H76.9838V51H75.9116ZM62.3617 51H61.2894V52.0723H62.3617V51ZM62.3617 13.5674H63.434V12.4951H62.3617V13.5674ZM62.0693 13.5674V12.4951H61.773L61.5188 12.6472L62.0693 13.5674ZM51.1514 20.0986H50.0791V21.9895L51.7019 21.0188L51.1514 20.0986ZM51.1514 8.59584L50.5923 7.68087L50.0791 7.99446V8.59584H51.1514ZM63.434 1.08982V0.0175247H63.1323L62.8749 0.17485L63.434 1.08982ZM74.8393 1.08982V51H76.9838V1.08982H74.8393ZM75.9116 49.9277H62.3617V52.0723H75.9116V49.9277ZM63.434 51V13.5674H61.2894V51H63.434ZM62.3617 12.4951H62.0693V14.6396H62.3617V12.4951ZM61.5188 12.6472L50.6009 19.1784L51.7019 21.0188L62.6198 14.4876L61.5188 12.6472ZM52.2237 20.0986V8.59584H50.0791V20.0986H52.2237ZM51.7106 9.5108L63.9931 2.00478L62.8749 0.17485L50.5923 7.68087L51.7106 9.5108ZM63.434 2.1621H75.9116V0.0175247H63.434V2.1621Z" fill="#161616"/>
</svg>
