<svg width="90" height="53" viewBox="0 0 90 53" fill="none" xmlns="http://www.w3.org/2000/svg">
<path d="M22.9532 52.7983L22.9494 53.8706H22.9532V52.7983ZM11.2068 49.6546L10.6348 50.5616L11.2068 49.6546ZM3.57889 40.662L2.60341 41.1072L3.57889 40.662ZM0.922541 26.576L1.99482 26.5792V26.5792L0.922541 26.576ZM3.60326 12.5875L2.63136 12.1345L2.62979 12.1379L3.60326 12.5875ZM11.2068 3.83858L10.6511 2.9215L10.6491 2.92272L11.2068 3.83858ZM34.6996 3.86295L34.1407 4.77803L34.144 4.78003L34.6996 3.86295ZM42.3275 12.6119L43.2994 12.1588V12.1588L42.3275 12.6119ZM44.9839 26.576L43.9116 26.5728V26.576H44.9839ZM42.3032 40.7107L43.2786 41.1559L42.3032 40.7107ZM34.6753 49.7033L35.246 50.6111L35.2472 50.6103L34.6753 49.7033ZM28.7046 38.1275L27.7916 37.5651L27.7905 37.5668L28.7046 38.1275ZM30.9466 26.576H29.8743L29.8744 26.5793L30.9466 26.576ZM29.9231 18.1683L30.9463 17.8476L29.9231 18.1683ZM27.0961 13.343L26.3885 14.1486L26.3947 14.154L27.0961 13.343ZM17.2262 15.3169L16.3162 14.7498H16.3162L17.2262 15.3169ZM14.9598 26.576L13.8875 26.5692L13.8875 26.571L14.9598 26.576ZM15.959 35.203L14.9325 35.5132L14.9331 35.5152L15.959 35.203ZM18.7859 40.1746L18.0722 40.9748L18.0775 40.9795L18.7859 40.1746ZM22.9571 51.726C18.592 51.7104 14.8806 50.7034 11.7787 48.7475L10.6348 50.5616C14.1292 52.7649 18.2487 53.8538 22.9494 53.8706L22.9571 51.726ZM11.7787 48.7475C8.67533 46.7907 6.26418 43.9628 4.55437 40.2167L2.60341 41.1072C4.4679 45.1921 7.142 48.3592 10.6348 50.5616L11.7787 48.7475ZM4.55437 40.2167C2.84644 36.4748 1.97892 31.9403 1.99482 26.5792L-0.149744 26.5728C-0.166329 32.162 0.737046 37.0182 2.60341 41.1072L4.55437 40.2167ZM1.99482 26.5792C2.01075 21.1975 2.88682 16.696 4.57674 13.0371L2.62979 12.1379C0.777906 16.1474 -0.133172 20.9716 -0.149744 26.5728L1.99482 26.5792ZM4.57516 13.0405C6.28232 9.37786 8.68141 6.63173 11.7644 4.75444L10.6491 2.92272C7.16842 5.04214 4.4985 8.12861 2.63136 12.1345L4.57516 13.0405ZM11.7624 4.75566C14.8655 2.87546 18.5815 1.91333 22.9532 1.91333V-0.231247C18.2592 -0.231247 14.1442 0.804985 10.6511 2.9215L11.7624 4.75566ZM22.9532 1.91333C27.3234 1.91333 31.0381 2.88287 34.1407 4.77803L35.2586 2.94787C31.765 0.813824 27.6488 -0.231247 22.9532 -0.231247V1.91333ZM34.144 4.78003C37.2429 6.6577 39.6491 9.40364 41.3556 13.0649L43.2994 12.1588C41.4316 8.15157 38.7526 5.06491 35.2553 2.94587L34.144 4.78003ZM41.3556 13.0649C43.0596 16.7207 43.9275 21.2106 43.9116 26.5728L46.0562 26.5792C46.0727 20.991 45.1697 16.1715 43.2994 12.1588L41.3556 13.0649ZM43.9116 26.576C43.9116 31.9714 43.0358 36.5231 41.3277 40.2655L43.2786 41.1559C45.1448 37.0674 46.0562 32.1959 46.0562 26.576H43.9116ZM41.3277 40.2655C39.6179 44.0115 37.2067 46.8395 34.1034 48.7963L35.2472 50.6103C38.74 48.408 41.4141 45.2409 43.2786 41.1559L41.3277 40.2655ZM34.1045 48.7955C31.0209 50.7343 27.3189 51.726 22.9532 51.726V53.8706C27.6532 53.8706 31.766 52.799 35.246 50.6111L34.1045 48.7955ZM22.9532 42.8553C25.7526 42.8553 27.9792 41.3611 29.6186 38.6881L27.7905 37.5668C26.4406 39.7678 24.8329 40.7107 22.9532 40.7107V42.8553ZM29.6176 38.6898C31.2883 35.977 32.0354 31.8793 32.0189 26.5727L29.8744 26.5793C29.8904 31.7681 29.1427 35.3713 27.7916 37.5651L29.6176 38.6898ZM32.0189 26.576C32.0189 23.088 31.6731 20.1666 30.9463 17.8476L28.8999 18.489C29.5378 20.5241 29.8743 23.2078 29.8743 26.576H32.0189ZM30.9463 17.8476C30.2289 15.5587 29.2026 13.747 27.7976 12.5319L26.3947 14.154C27.3943 15.0185 28.2525 16.4236 28.8999 18.489L30.9463 17.8476ZM27.8038 12.5373C26.4114 11.3143 24.7807 10.6866 22.9532 10.6866V12.8312C24.2451 12.8312 25.3763 13.2595 26.3885 14.1486L27.8038 12.5373ZM22.9532 10.6866C20.1666 10.6866 17.9461 12.1348 16.3162 14.7498L18.1362 15.8841C19.4633 13.755 21.0607 12.8312 22.9532 12.8312V10.6866ZM16.3162 14.7498C14.6772 17.3794 13.9204 21.3787 13.8875 26.5692L16.032 26.5828C16.0642 21.5053 16.8183 17.9986 18.1362 15.8841L16.3162 14.7498ZM13.8875 26.571C13.871 30.1247 14.2083 33.1164 14.9325 35.5132L16.9854 34.8929C16.3449 32.7731 16.0161 30.0134 16.0321 26.581L13.8875 26.571ZM14.9331 35.5152C15.6483 37.865 16.6709 39.725 18.0722 40.9748L19.4996 39.3743C18.4964 38.4795 17.6344 37.0252 16.9848 34.8908L14.9331 35.5152ZM18.0775 40.9795C19.4831 42.2164 21.1214 42.8553 22.9532 42.8553V40.7107C21.6657 40.7107 20.5257 40.2773 19.4943 39.3696L18.0775 40.9795ZM51.3445 51.4336H50.2722V52.5059H51.3445V51.4336ZM51.3445 41.6855L50.661 40.8593L50.2722 41.1809V41.6855H51.3445ZM69.9633 26.2835L70.6468 27.1098L70.6477 27.1091L69.9633 26.2835ZM73.1315 23.4079L72.3664 22.6565L72.3663 22.6566L73.1315 23.4079ZM75.1786 20.6053L74.2227 20.1193L74.2194 20.1258L74.2162 20.1323L75.1786 20.6053ZM75.0811 14.1228L74.1572 14.6672L74.1645 14.6793L75.0811 14.1228ZM72.839 12.027L72.3403 12.9762L72.3466 12.9795L72.353 12.9828L72.839 12.027ZM66.2103 12.027L65.7116 11.0777L65.7049 11.0813L66.2103 12.027ZM64.017 14.2447L63.0709 13.74L64.017 14.2447ZM63.2372 17.8027V18.875H64.3094V17.8027H63.2372ZM50.3697 17.8027H49.2974V18.875H50.3697V17.8027ZM52.7336 8.73699L51.823 8.17078L52.7336 8.73699ZM59.411 2.88814L59.8708 3.85687L59.411 2.88814ZM79.9064 2.76629L79.4754 3.7482L79.482 3.75103L79.9064 2.76629ZM86.7057 8.12774L85.8231 8.73681L85.8261 8.74099L86.7057 8.12774ZM87.9242 21.97L88.912 22.3873L88.9132 22.3842L87.9242 21.97ZM83.635 28.2332L84.4318 28.9508L83.635 28.2332ZM74.8374 36.4215L75.5238 37.2453L74.8374 36.4215ZM70.1583 40.3208L69.4718 39.497L69.086 39.8185V40.3208H70.1583ZM70.1583 40.6132H69.086V41.6855H70.1583V40.6132ZM89.6545 40.6132H90.7268V39.5409H89.6545V40.6132ZM89.6545 51.4336V52.5059H90.7268V51.4336H89.6545ZM52.4168 51.4336V41.6855H50.2722V51.4336H52.4168ZM52.028 42.5117L70.6468 27.1098L69.2799 25.4573L50.661 40.8593L52.028 42.5117ZM70.6477 27.1091C71.9032 26.0683 72.9877 25.0848 73.8966 24.1591L72.3663 22.6566C71.5206 23.518 70.493 24.4517 69.279 25.458L70.6477 27.1091ZM73.8965 24.1592C74.8552 23.1831 75.6105 22.1573 76.1409 21.0783L74.2162 20.1323C73.8043 20.9704 73.1949 21.813 72.3664 22.6565L73.8965 24.1592ZM76.1344 21.0913C76.7049 19.9692 76.982 18.7363 76.982 17.4128H74.8374C74.8374 18.4288 74.627 19.3242 74.2227 20.1193L76.1344 21.0913ZM76.982 17.4128C76.982 15.9736 76.6711 14.6755 75.9977 13.5663L74.1645 14.6793C74.5959 15.3898 74.8374 16.285 74.8374 17.4128H76.982ZM76.0049 13.5784C75.363 12.4892 74.4622 11.6494 73.325 11.0711L72.353 12.9828C73.1329 13.3794 73.7269 13.9368 74.1573 14.6672L76.0049 13.5784ZM73.3378 11.0777C72.203 10.4815 70.9223 10.1992 69.5247 10.1992V12.3438C70.629 12.3438 71.5579 12.5651 72.3403 12.9762L73.3378 11.0777ZM69.5247 10.1992C68.127 10.1992 66.8463 10.4815 65.7116 11.0777L66.7091 12.9762C67.4915 12.5651 68.4203 12.3438 69.5247 12.3438V10.1992ZM65.7049 11.0813C64.5686 11.6886 63.6871 12.5846 63.0709 13.74L64.9631 14.7493C65.3867 13.9551 65.9674 13.3726 66.7158 12.9727L65.7049 11.0813ZM63.0709 13.74C62.4491 14.9059 62.1649 16.275 62.1649 17.8027H64.3094C64.3094 16.5359 64.5452 15.533 64.9631 14.7493L63.0709 13.74ZM63.2372 16.7304H50.3697V18.875H63.2372V16.7304ZM51.442 17.8027C51.442 14.4578 52.1913 11.6398 53.6442 9.3032L51.823 8.17078C50.124 10.9032 49.2974 14.129 49.2974 17.8027H51.442ZM53.6442 9.3032C55.1042 6.95511 57.1679 5.13958 59.8708 3.85687L58.9513 1.91941C55.9028 3.36617 53.5148 5.44987 51.823 8.17078L53.6442 9.3032ZM59.8708 3.85687C62.5753 2.57338 65.7834 1.91333 69.5247 1.91333V-0.231247C65.5325 -0.231247 61.9982 0.473434 58.9513 1.91941L59.8708 3.85687ZM69.5247 1.91333C73.4092 1.91333 76.7164 2.53728 79.4754 3.74817L80.3373 1.78441C77.2475 0.428303 73.6336 -0.231247 69.5247 -0.231247V1.91333ZM79.482 3.75103C82.2647 4.95019 84.361 6.61813 85.8232 8.7368L87.5882 7.51867C85.866 5.02325 83.4294 3.11689 80.3307 1.78155L79.482 3.75103ZM85.8261 8.74099C87.2962 10.8496 88.046 13.3355 88.046 16.243H90.1906C90.1906 12.9443 89.3321 10.0199 87.5853 7.51448L85.8261 8.74099ZM88.046 16.243C88.046 18.0075 87.6804 19.7762 86.9351 21.5558L88.9132 22.3842C89.7601 20.3621 90.1906 18.3128 90.1906 16.243H88.046ZM86.9364 21.5528C86.2041 23.2865 84.858 25.2732 82.8383 27.5155L84.4318 28.9508C86.5387 26.6116 88.0521 24.4228 88.912 22.3873L86.9364 21.5528ZM82.8383 27.5155C80.8232 29.7527 77.9339 32.4453 74.1509 35.5978L75.5238 37.2453C79.3444 34.0615 82.3202 31.2952 84.4318 28.9508L82.8383 27.5155ZM74.1509 35.5978L69.4718 39.497L70.8448 41.1445L75.5238 37.2453L74.1509 35.5978ZM69.086 40.3208V40.6132H71.2306V40.3208H69.086ZM70.1583 41.6855H89.6545V39.5409H70.1583V41.6855ZM88.5822 40.6132V51.4336H90.7268V40.6132H88.5822ZM89.6545 50.3613H51.3445V52.5059H89.6545V50.3613Z" fill="#161616"/>
</svg>
