<svg width="92" height="53" viewBox="0 0 92 53" fill="none" xmlns="http://www.w3.org/2000/svg">
<path d="M23.0526 52.0932L23.0487 53.1655H23.0526V52.0932ZM11.3061 48.9495L10.7342 49.8565L11.3061 48.9495ZM3.67826 39.9569L2.70278 40.4021L3.67826 39.9569ZM1.02191 25.8709L2.09419 25.8741V25.8741L1.02191 25.8709ZM3.70263 11.8824L2.73072 11.4294L2.72915 11.4328L3.70263 11.8824ZM11.3061 3.1335L10.7505 2.21642L10.7485 2.21764L11.3061 3.1335ZM34.799 3.15787L34.24 4.07295L34.2433 4.07495L34.799 3.15787ZM42.4269 11.9068L43.3988 11.4538V11.4538L42.4269 11.9068ZM45.0832 25.8709L44.011 25.8677V25.8709H45.0832ZM42.4025 40.0056L43.378 40.4509L42.4025 40.0056ZM34.7746 48.9982L35.3454 49.906L35.3466 49.9053L34.7746 48.9982ZM28.8039 37.4224L27.8909 36.8601L27.8899 36.8618L28.8039 37.4224ZM31.046 25.8709H29.9737L29.9737 25.8742L31.046 25.8709ZM30.0225 17.4632L31.0457 17.1425L30.0225 17.4632ZM27.1955 12.6379L26.4878 13.4435L26.4941 13.4489L27.1955 12.6379ZM17.3256 14.6119L16.4156 14.0447H16.4156L17.3256 14.6119ZM15.0591 25.8709L13.9869 25.8641L13.9869 25.8659L15.0591 25.8709ZM16.0583 34.498L15.0319 34.8081L15.0325 34.8102L16.0583 34.498ZM18.8853 39.4695L18.1715 40.2697L18.1769 40.2745L18.8853 39.4695ZM23.0564 51.021C18.6914 51.0053 14.9799 49.9983 11.8781 48.0425L10.7342 49.8565C14.2285 52.0599 18.3481 53.1487 23.0487 53.1655L23.0564 51.021ZM11.8781 48.0425C8.7747 46.0857 6.36355 43.2577 4.65374 39.5116L2.70278 40.4021C4.56726 44.487 7.24136 47.6541 10.7342 49.8565L11.8781 48.0425ZM4.65374 39.5116C2.94581 35.7697 2.07828 31.2352 2.09419 25.8741L-0.0503786 25.8677C-0.0669637 31.4569 0.836411 36.3131 2.70278 40.4021L4.65374 39.5116ZM2.09419 25.8741C2.11011 20.4925 2.98618 15.9909 4.6761 12.332L2.72915 11.4328C0.877271 15.4424 -0.0338069 20.2665 -0.0503786 25.8677L2.09419 25.8741ZM4.67453 12.3354C6.38169 8.67278 8.78077 5.92665 11.8638 4.04936L10.7485 2.21764C7.26778 4.33706 4.59787 7.42354 2.73073 11.4294L4.67453 12.3354ZM11.8618 4.05058C14.9649 2.17038 18.6809 1.20825 23.0526 1.20825V-0.936325C18.3586 -0.936325 14.2436 0.0999069 10.7505 2.21642L11.8618 4.05058ZM23.0526 1.20825C27.4227 1.20825 31.1375 2.17779 34.2401 4.07295L35.358 2.2428C31.8643 0.108746 27.7481 -0.936325 23.0526 -0.936325V1.20825ZM34.2433 4.07495C37.3423 5.95262 39.7485 8.69856 41.455 12.3598L43.3988 11.4538C41.531 7.44649 38.852 4.35983 35.3547 2.24079L34.2433 4.07495ZM41.455 12.3598C43.159 16.0156 44.0269 20.5055 44.011 25.8677L46.1555 25.8741C46.1721 20.2859 45.2691 15.4664 43.3988 11.4538L41.455 12.3598ZM44.011 25.8709C44.011 31.2663 43.1352 35.818 41.427 39.5604L43.378 40.4509C45.2441 36.3623 46.1555 31.4908 46.1555 25.8709H44.011ZM41.427 39.5604C39.7172 43.3064 37.3061 46.1344 34.2027 48.0912L35.3466 49.9053C38.8394 47.7029 41.5135 44.5358 43.378 40.4509L41.427 39.5604ZM34.2039 48.0904C31.1202 50.0292 27.4183 51.021 23.0526 51.021V53.1655C27.7526 53.1655 31.8653 52.094 35.3454 49.906L34.2039 48.0904ZM23.0526 42.1502C25.852 42.1502 28.0785 40.656 29.718 37.983L27.8899 36.8618C26.5399 39.0628 24.9323 40.0056 23.0526 40.0056V42.1502ZM29.717 37.9847C31.3877 35.272 32.1347 31.1743 32.1183 25.8676L29.9737 25.8742C29.9898 31.063 29.2421 34.6663 27.8909 36.8601L29.717 37.9847ZM32.1183 25.8709C32.1183 22.3829 31.7725 19.4615 31.0457 17.1425L28.9992 17.7839C29.6371 19.819 29.9737 22.5027 29.9737 25.8709H32.1183ZM31.0457 17.1425C30.3283 14.8537 29.3019 13.0419 27.8969 11.8268L26.4941 13.4489C27.4936 14.3134 28.3519 15.7186 28.9992 17.7839L31.0457 17.1425ZM27.9032 11.8323C26.5108 10.6092 24.88 9.98153 23.0526 9.98153V12.1261C24.3445 12.1261 25.4757 12.5544 26.4879 13.4435L27.9032 11.8323ZM23.0526 9.98153C20.266 9.98153 18.0454 11.4298 16.4156 14.0447L18.2356 15.1791C19.5626 13.0499 21.1601 12.1261 23.0526 12.1261V9.98153ZM16.4156 14.0447C14.7766 16.6743 14.0197 20.6736 13.9869 25.8641L16.1314 25.8777C16.1635 20.8003 16.9177 17.2935 18.2356 15.1791L16.4156 14.0447ZM13.9869 25.8659C13.9703 29.4196 14.3076 32.4113 15.0319 34.8081L17.0848 34.1878C16.4443 32.068 16.1155 29.3083 16.1314 25.8759L13.9869 25.8659ZM15.0325 34.8102C15.7476 37.1599 16.7702 39.0199 18.1715 40.2697L19.599 38.6692C18.5958 37.7745 17.7338 36.3201 17.0842 34.1857L15.0325 34.8102ZM18.1769 40.2745C19.5824 41.5114 21.2207 42.1502 23.0526 42.1502V40.0056C21.765 40.0056 20.6251 39.5722 19.5937 38.6645L18.1769 40.2745ZM60.4608 49.3882L60.0215 50.3663L60.0278 50.3691L60.4608 49.3882ZM53.296 43.7586L54.1629 43.1276L53.296 43.7586ZM50.664 35.5215V34.4492H49.5861L49.5917 35.5271L50.664 35.5215ZM64.3113 35.5215L65.3835 35.5033L65.3656 34.4492H64.3113V35.5215ZM65.1887 38.1047L64.3286 38.7452L64.3363 38.7555L64.3442 38.7656L65.1887 38.1047ZM67.5769 39.8594L67.1623 40.8483L67.5769 39.8594ZM74.3519 39.835L74.7981 40.8101L74.8049 40.807L74.8116 40.8038L74.3519 39.835ZM76.5939 37.9585L77.4833 38.5575L76.5939 37.9585ZM77.3738 35.2291L76.3016 35.2118L76.3013 35.2289L76.3016 35.2461L77.3738 35.2291ZM76.4477 32.5483L75.6069 33.214L75.6155 33.2245L76.4477 32.5483ZM64.8962 30.0626H63.8239V31.1349H64.8962V30.0626ZM64.8962 20.7044V19.6321H63.8239V20.7044H64.8962ZM73.5233 20.0464L73.1065 19.0584L73.1009 19.0608L73.5233 20.0464ZM75.9359 18.2187L75.0781 17.5753L75.0738 17.5811L75.0695 17.5869L75.9359 18.2187ZM76.7889 15.5379L75.7167 15.5201L75.7164 15.5376L75.7167 15.5552L76.7889 15.5379ZM76.0821 12.9547L75.184 13.5405V13.5405L76.0821 12.9547ZM74.035 11.2L73.5628 12.1628L73.5699 12.1662L74.035 11.2ZM67.7232 11.2244L67.2831 10.2465L67.277 10.2494L67.7232 11.2244ZM65.4567 13.0522L66.3317 13.672V13.672L65.4567 13.0522ZM64.6038 15.7329V16.8052H65.6589L65.6759 15.7502L64.6038 15.7329ZM51.6388 15.7329L50.5666 15.7272L50.5608 16.8052H51.6388V15.7329ZM54.149 7.64199L53.2768 7.01815L53.2739 7.02219L54.149 7.64199ZM61.0214 2.13432L61.4679 3.10919L61.0214 2.13432ZM80.81 2.01247L80.376 2.99304L80.3781 2.99395L80.81 2.01247ZM87.463 7.17896L86.5952 7.8089L86.6006 7.81613L87.463 7.17896ZM89.8513 14.6606L88.779 14.6544L88.779 14.6637L88.7791 14.6731L89.8513 14.6606ZM86.9756 21.533L86.251 20.7426L86.2478 20.7456L86.9756 21.533ZM79.6158 24.7011L79.4993 23.6352L78.5435 23.7397V24.7011H79.6158ZM79.6158 25.0911H78.5435V26.0529L79.4998 26.157L79.6158 25.0911ZM88.7059 28.7953L87.9477 29.5536L87.9507 29.5566L88.7059 28.7953ZM91.7034 36.3988L90.6312 36.3874L90.6311 36.3961L90.6312 36.4048L91.7034 36.3988ZM89.0715 44.1729L88.2277 43.5112L88.2247 43.515L89.0715 44.1729ZM81.736 49.4856L81.3298 48.4933L81.328 48.494L81.736 49.4856ZM70.94 50.3386C67.1313 50.3386 63.7898 49.6857 60.8939 48.4072L60.0278 50.3691C63.2407 51.7876 66.8853 52.4832 70.94 52.4832V50.3386ZM60.9002 48.41C58.0102 47.1118 55.778 45.3465 54.1629 43.1276L52.4291 44.3897C54.2908 46.9474 56.8351 48.935 60.0215 50.3663L60.9002 48.41ZM54.1629 43.1276C52.5638 40.9306 51.7514 38.4063 51.7363 35.5159L49.5917 35.5271C49.6091 38.843 50.5514 41.8101 52.4291 44.3897L54.1629 43.1276ZM50.664 36.5938H64.3113V34.4492H50.664V36.5938ZM63.2392 35.5397C63.2592 36.7211 63.6249 37.8001 64.3286 38.7452L66.0487 37.4643C65.6152 36.8821 65.3959 36.2391 65.3835 35.5033L63.2392 35.5397ZM64.3442 38.7656C65.0581 39.6777 66.0118 40.3658 67.1623 40.8483L67.9916 38.8705C67.1275 38.5081 66.489 38.0265 66.0331 37.4439L64.3442 38.7656ZM67.1623 40.8483C68.3233 41.3352 69.6219 41.5653 71.0375 41.5653V39.4207C69.8536 39.4207 68.8452 39.2285 67.9916 38.8705L67.1623 40.8483ZM71.0375 41.5653C72.4141 41.5653 73.6758 41.3237 74.7981 40.8101L73.9057 38.86C73.1108 39.2237 72.1629 39.4207 71.0375 39.4207V41.5653ZM74.8116 40.8038C75.9251 40.2753 76.8286 39.5296 77.4833 38.5575L75.7045 37.3595C75.2869 37.9796 74.6957 38.4849 73.8921 38.8663L74.8116 40.8038ZM77.4833 38.5575C78.1502 37.5672 78.4654 36.4394 78.4459 35.212L76.3016 35.2461C76.3146 36.0658 76.1099 36.7576 75.7045 37.3595L77.4833 38.5575ZM78.4459 35.2464C78.4662 33.9876 78.073 32.8483 77.2799 31.8722L75.6155 33.2245C76.0896 33.8081 76.3138 34.4559 76.3016 35.2118L78.4459 35.2464ZM77.2884 31.8828C76.5307 30.9256 75.4915 30.2153 74.2308 29.722L73.4493 31.7191C74.4307 32.1031 75.13 32.6114 75.607 33.2139L77.2884 31.8828ZM74.2308 29.722C72.9617 29.2254 71.5332 28.9903 69.9652 28.9903V31.1349C71.3216 31.1349 72.4764 31.3384 73.4493 31.7191L74.2308 29.722ZM69.9652 28.9903H64.8962V31.1349H69.9652V28.9903ZM65.9685 30.0626V20.7044H63.8239V30.0626H65.9685ZM64.8962 21.7767H69.9652V19.6321H64.8962V21.7767ZM69.9652 21.7767C71.429 21.7767 72.7636 21.5386 73.9457 21.032L73.1009 19.0608C72.2358 19.4316 71.1984 19.6321 69.9652 19.6321V21.7767ZM73.9401 21.0344C75.1285 20.533 76.1008 19.8126 76.8023 18.8504L75.0695 17.5869C74.6338 18.1844 73.9976 18.6825 73.1065 19.0585L73.9401 21.0344ZM76.7938 18.862C77.5265 17.8851 77.881 16.7573 77.861 15.5206L75.7167 15.5552C75.7293 16.3332 75.5152 16.9925 75.0781 17.5753L76.7938 18.862ZM77.861 15.5558C77.8805 14.3877 77.5955 13.3122 76.9803 12.3689L75.184 13.5405C75.5436 14.0919 75.7298 14.7386 75.7167 15.5201L77.861 15.5558ZM76.9803 12.3689C76.3763 11.4428 75.5372 10.7332 74.5002 10.2339L73.5699 12.1662C74.2875 12.5117 74.8131 12.9718 75.184 13.5405L76.9803 12.3689ZM74.5073 10.2374C73.4744 9.73062 72.3083 9.49412 71.0375 9.49412V11.6387C72.0412 11.6387 72.8736 11.8246 73.5628 12.1627L74.5073 10.2374ZM71.0375 9.49412C69.6744 9.49412 68.4161 9.73671 67.2831 10.2466L68.1632 12.2023C68.9798 11.8348 69.9311 11.6387 71.0375 11.6387V9.49412ZM67.277 10.2494C66.1648 10.7583 65.2543 11.4829 64.5817 12.4324L66.3317 13.672C66.764 13.0618 67.3644 12.5678 68.1694 12.1994L67.277 10.2494ZM64.5817 12.4324C63.8974 13.3984 63.5512 14.5046 63.5316 15.7156L65.6759 15.7502C65.6889 14.9466 65.9113 14.2656 66.3317 13.672L64.5817 12.4324ZM64.6038 14.6606H51.6388V16.8052H64.6038V14.6606ZM52.7111 15.7386C52.7263 12.8891 53.5025 10.4097 55.024 8.26179L53.2739 7.02219C51.481 9.55335 50.5839 12.4679 50.5666 15.7272L52.7111 15.7386ZM55.0211 8.26582C56.5739 6.09495 58.7103 4.37246 61.4679 3.10919L60.5748 1.15945C57.5161 2.56065 55.0709 4.50995 53.2768 7.01816L55.0211 8.26582ZM61.4679 3.10919C64.2132 1.85158 67.3952 1.20825 71.0375 1.20825V-0.936325C67.1413 -0.936325 63.6459 -0.247414 60.5748 1.15945L61.4679 3.10919ZM71.0375 1.20825C74.6045 1.20825 77.7095 1.81303 80.376 2.99304L81.2439 1.0319C78.2565 -0.290096 74.8466 -0.936325 71.0375 -0.936325V1.20825ZM80.3781 2.99395C83.0732 4.17981 85.1302 5.79061 86.5953 7.80888L88.3308 6.54903C86.6115 4.18067 84.2331 2.34714 81.2418 1.03099L80.3781 2.99395ZM86.6006 7.81613C88.0659 9.7995 88.794 12.0657 88.779 14.6544L90.9236 14.6668C90.9411 11.6342 90.077 8.91256 88.3255 6.54178L86.6006 7.81613ZM88.7791 14.6731C88.8083 17.1822 87.9619 19.1743 86.2511 20.7426L87.7002 22.3234C89.8886 20.3174 90.9593 17.7279 90.9235 14.6481L88.7791 14.6731ZM86.2478 20.7456C84.5056 22.356 82.2766 23.3317 79.4993 23.6352L79.7323 25.7671C82.9014 25.4207 85.579 24.2843 87.7035 22.3204L86.2478 20.7456ZM78.5435 24.7011V25.0911H80.6881V24.7011H78.5435ZM79.4998 26.157C83.3841 26.5799 86.1483 27.7542 87.9477 29.5536L89.4641 28.0371C87.2018 25.7748 83.906 24.4795 79.7319 24.0251L79.4998 26.157ZM87.9507 29.5566C89.7608 31.3522 90.6609 33.601 90.6312 36.3874L92.7757 36.4102C92.811 33.0879 91.7127 30.2677 89.4611 28.0341L87.9507 29.5566ZM90.6312 36.4048C90.6461 39.0923 89.8462 41.4472 88.2277 43.5112L89.9153 44.8346C91.8385 42.382 92.7933 39.5543 92.7757 36.3929L90.6312 36.4048ZM88.2247 43.515C86.6048 45.6 84.3241 47.2676 81.3298 48.4933L82.1422 50.478C85.4192 49.1367 88.0289 47.2625 89.9182 44.8308L88.2247 43.515ZM81.328 48.494C78.3621 49.7144 74.9066 50.3386 70.94 50.3386V52.4832C75.1294 52.4832 78.8712 51.8239 82.1441 50.4773L81.328 48.494Z" fill="#161616"/>
</svg>
